# xmcd
#
# Track frame offsets: 
#        150
#        10508
#        25337
#        42925
#        58565
#        74439
#        90209
#        101132
#        116312
#        134124
#        149012
#        162958
#        184627
#        198774
#        208996
#        226156
#        246606
#        262199
#
# Disc length: 3694 seconds
#
# Revision: 0
# Processed by: cddbd v1.5.2PL0 Copyright (c) Steve Scherf et al.
# Submitted via: ExactAudioCopyFreeDBPlugin 1.0
#
DISCID=060e6c12
DTITLE=J.B. Hutto and His Hawks - Hawk Squat
DYEAR=2015
DGENRE=Blues
TTITLE0=Speak My Mind
TTITLE1=If You Change Your Mind
TTITLE2=Too Much Pride
TTITLE3=What Can You Get Outside That You Can't Get At Home
TTITLE4=The Same Mistake Twice
TTITLE5=20% Alcohol
TTITLE6=Hip Shakin'
TTITLE7=The Feeling is Gone
TTITLE8=Notoriety Woman
TTITLE9=Too Late
TTITLE10=Send Her Home To Me
TTITLE11=Hawk Squat
TTITLE12=I'll Cry Tomorrow
TTITLE13=Speak My Mind (alt)
TTITLE14=Too Much Pride (alt)
TTITLE15=Hawk Squat (alt)
TTITLE16=Same Mistake Twice (alt)
TTITLE17=Speak My Mind (alt 2)
EXTD=
EXTT0=
EXTT1=
EXTT2=
EXTT3=
EXTT4=
EXTT5=
EXTT6=
EXTT7=
EXTT8=
EXTT9=
EXTT10=
EXTT11=
EXTT12=
EXTT13=
EXTT14=
EXTT15=
EXTT16=
EXTT17=
PLAYORDER=
